<svg width="532" height="314" viewBox="0 0 532 314" fill="none" xmlns="http://www.w3.org/2000/svg">
<path d="M30.8 72H7.76V-5.72205e-06H30.8V72ZM90.4138 37.056L89.0698 72H64.9738L69.3898 -5.72205e-06H99.4378L108.366 36.672H109.23L118.158 -5.72205e-06H148.302L152.622 72H128.526L127.182 37.056H126.414L117.582 72H100.014L91.0858 37.056H90.4138Z" fill="white"/>
<path d="M40.1458 -5.72205e-06H58.4818V15.456L53.6818 33.408H44.6578L48.2098 17.568H40.1458V-5.72205e-06Z" fill="#0BFDA6"/>
<path d="M27.536 180.576L24.944 192H0.656L19.28 120H54.896L73.52 192H49.232L46.544 180.576H27.536ZM37.712 142.08H36.464L31.76 162.24H42.32L37.712 142.08ZM124.059 173.568V192H77.9788V120H101.019V173.568H124.059ZM171.761 192H130.385V120H167.729C174.641 120 179.569 121.344 182.513 124.032C185.457 126.72 186.929 130.624 186.929 135.744C186.929 140.928 186.001 144.928 184.145 147.744C182.289 150.496 179.761 152.32 176.561 153.216V153.888C185.841 155.488 190.481 161.824 190.481 172.896C190.481 178.656 188.945 183.296 185.873 186.816C182.865 190.272 178.161 192 171.761 192ZM162.449 163.296H153.425V175.104H162.257C165.521 175.104 167.153 173.12 167.153 169.152C167.153 165.248 165.585 163.296 162.449 163.296ZM160.721 135.744H153.425V146.496H160.529C163.473 146.496 164.945 144.704 164.945 141.12C164.945 137.536 163.537 135.744 160.721 135.744ZM218.317 180.576L215.725 192H191.437L210.061 120H245.677L264.301 192H240.013L237.325 180.576H218.317ZM228.493 142.08H227.245L222.541 162.24H233.101L228.493 142.08ZM310.136 192H268.76V120H306.104C313.016 120 317.944 121.344 320.888 124.032C323.832 126.72 325.304 130.624 325.304 135.744C325.304 140.928 324.376 144.928 322.52 147.744C320.664 150.496 318.136 152.32 314.936 153.216V153.888C324.216 155.488 328.856 161.824 328.856 172.896C328.856 178.656 327.32 183.296 324.248 186.816C321.24 190.272 316.536 192 310.136 192ZM300.824 163.296H291.8V175.104H300.632C303.896 175.104 305.528 173.12 305.528 169.152C305.528 165.248 303.96 163.296 300.824 163.296ZM299.096 135.744H291.8V146.496H298.904C301.848 146.496 303.32 144.704 303.32 141.12C303.32 137.536 301.912 135.744 299.096 135.744ZM44.624 290.784V287.712H38.768V270.048H66.512V308.544C57.424 312 47.984 313.728 38.192 313.728C31.472 313.728 25.904 312.928 21.488 311.328C17.136 309.728 13.68 307.36 11.12 304.224C8.56 301.024 6.768 297.088 5.744 292.416C4.784 287.68 4.304 282.176 4.304 275.904C4.304 269.248 4.912 263.552 6.128 258.816C7.344 254.016 9.36 250.112 12.176 247.104C14.992 244.032 18.736 241.792 23.408 240.384C28.08 238.976 33.872 238.272 40.784 238.272C42.32 238.272 44.112 238.368 46.16 238.56C48.272 238.688 50.384 238.912 52.496 239.232C54.608 239.488 56.592 239.808 58.448 240.192C60.368 240.512 61.904 240.864 63.056 241.248L59.6 258.912C56.464 258.4 53.488 258.016 50.672 257.76C47.856 257.44 45.232 257.28 42.8 257.28C37.744 257.28 34.192 257.664 32.144 258.432C30.096 259.2 29.072 260.736 29.072 263.04V295.68H36.656C39.472 295.68 41.488 295.392 42.704 294.816C43.984 294.176 44.624 292.832 44.624 290.784ZM140.214 312H117.174V286.56H99.8938V312H76.8538V240H99.8938V265.44H117.174V240H140.214V312ZM148.304 276.096C148.304 269.504 148.848 263.84 149.936 259.104C151.088 254.304 152.976 250.368 155.6 247.296C158.288 244.224 161.808 241.952 166.16 240.48C170.512 239.008 175.888 238.272 182.288 238.272C188.752 238.272 194.128 239.008 198.416 240.48C202.768 241.952 206.256 244.224 208.88 247.296C211.568 250.368 213.456 254.304 214.544 259.104C215.696 263.84 216.272 269.504 216.272 276.096C216.272 282.368 215.76 287.872 214.736 292.608C213.712 297.28 211.888 301.184 209.264 304.32C206.704 307.456 203.216 309.824 198.8 311.424C194.448 312.96 188.944 313.728 182.288 313.728C175.632 313.728 170.096 312.96 165.68 311.424C161.328 309.824 157.84 307.456 155.216 304.32C152.656 301.184 150.864 297.28 149.84 292.608C148.816 287.872 148.304 282.368 148.304 276.096ZM173.072 264.096V294.048H182.672C185.872 294.048 188.144 293.696 189.488 292.992C190.896 292.224 191.6 290.528 191.6 287.904V257.952H181.904C178.832 257.952 176.592 258.336 175.184 259.104C173.776 259.808 173.072 261.472 173.072 264.096ZM283.555 293.568V312H221.443V297.6L250.915 259.104L250.627 258.432H226.435L224.323 240H283.075V254.4L253.891 292.896L254.275 293.568H283.555ZM355.558 312H332.518V286.56H315.238V312H292.198V240H315.238V265.44H332.518V240H355.558V312ZM386.88 300.576L384.288 312H360L378.624 240H414.24L432.864 312H408.576L405.888 300.576H386.88ZM397.056 262.08H395.808L391.104 282.24H401.664L397.056 262.08ZM487.627 288L500.107 312H474.763L465.355 290.592H460.363V312H437.323V240H473.611C490.123 240 498.379 248.416 498.379 265.248C498.379 276.768 494.795 284.352 487.627 288ZM465.643 258.432H460.363V272.832H465.643C468.459 272.832 470.475 272.544 471.691 271.968C472.971 271.392 473.611 270.08 473.611 268.032V263.232C473.611 261.184 472.971 259.872 471.691 259.296C470.475 258.72 468.459 258.432 465.643 258.432ZM531.238 312H508.198V240H531.238V312Z" fill="#0AEDA0"/>
</svg>
